<svg xmlns="http://www.w3.org/2000/svg" xmlns:xlink="http://www.w3.org/1999/xlink" width="1920" zoomAndPan="magnify" viewBox="0 0 1440 391.91998" height="512" preserveAspectRatio="xMidYMid meet" version="1.0"><defs><g/><clipPath id="51a353e678"><path d="M 38.539062 71.039062 L 270.992188 71.039062 L 270.992188 303.492188 L 38.539062 303.492188 Z M 38.539062 71.039062 " clip-rule="nonzero"/></clipPath><clipPath id="36e9758665"><rect x="0" width="1143" y="0" height="197"/></clipPath></defs><path fill="#0a1f44" d="M 97.714844 194.382812 C 98.089844 178.261719 104.542969 163.164062 115.984375 151.722656 C 127.773438 139.929688 143.453125 133.4375 160.128906 133.4375 L 211.691406 133.4375 C 210.914062 148.636719 198.308594 160.765625 182.917969 160.765625 L 160.128906 160.765625 C 108.886719 160.765625 97.714844 194.382812 97.714844 194.382812 " fill-opacity="1" fill-rule="nonzero"/><g clip-path="url(#51a353e678)"><path fill="#0a1f44" d="M 154.710938 303.386719 C 149.003906 303.386719 143.261719 302.96875 137.628906 302.136719 L 137.628906 276.566406 C 143.242188 277.636719 148.980469 278.175781 154.710938 278.175781 C 204.871094 278.175781 245.671875 237.371094 245.671875 187.214844 C 245.671875 137.058594 204.871094 96.253906 154.710938 96.253906 C 104.554688 96.253906 63.75 137.058594 63.75 187.214844 C 63.75 208.628906 71.324219 229.394531 85.089844 245.75 L 85.089844 280.21875 C 71.335938 269.902344 59.890625 256.507812 51.886719 241.335938 C 43.15625 224.777344 38.539062 206.0625 38.539062 187.214844 C 38.539062 171.53125 41.609375 156.316406 47.667969 141.992188 C 53.519531 128.160156 61.894531 115.734375 72.566406 105.066406 C 83.234375 94.398438 95.660156 86.019531 109.492188 80.171875 C 123.8125 74.113281 139.027344 71.039062 154.710938 71.039062 C 170.394531 71.039062 185.609375 74.113281 199.933594 80.171875 C 213.769531 86.019531 226.191406 94.398438 236.859375 105.066406 C 247.527344 115.734375 255.90625 128.160156 261.757812 141.992188 C 267.816406 156.316406 270.886719 171.53125 270.886719 187.214844 C 270.886719 202.898438 267.816406 218.113281 261.757812 232.433594 C 255.90625 246.269531 247.527344 258.691406 236.859375 269.363281 C 226.191406 280.027344 213.769531 288.410156 199.933594 294.257812 C 185.609375 300.316406 170.394531 303.386719 154.710938 303.386719 " fill-opacity="1" fill-rule="nonzero"/></g><path fill="#007bff" d="M 97.867188 255.179688 C 97.753906 256.6875 97.699219 258.238281 97.699219 259.78125 L 97.695312 261.261719 L 97.695312 288.457031 C 106.304688 293.316406 115.484375 297.042969 125.023438 299.558594 L 125.023438 259.78125 C 125.023438 240.425781 140.773438 224.675781 160.128906 224.675781 C 102.222656 224.675781 97.867188 255.179688 97.867188 255.179688 " fill-opacity="1" fill-rule="nonzero"/><path fill="#2bb673" d="M 160.128906 197.351562 C 144.253906 197.351562 129.125 203.3125 117.53125 214.140625 C 105.992188 224.914062 99.007812 239.484375 97.867188 255.179688 C 97.867188 255.179688 102.222656 224.675781 160.128906 224.675781 L 182.917969 224.675781 C 198.308594 224.675781 210.914062 212.546875 211.691406 197.351562 L 160.128906 197.351562 " fill-opacity="1" fill-rule="nonzero"/><g transform="matrix(1, 0, 0, 1, 270, 85)"><g clip-path="url(#36e9758665)"><g fill="#0a1f44" fill-opacity="1"><g transform="translate(0.948994, 155.86555)"><g><path d="M 39.234375 -91.265625 L 39.234375 -61.640625 L 91.109375 -61.640625 L 91.109375 -40.828125 L 39.234375 -40.828125 L 39.234375 0 L 13.296875 0 L 13.296875 -112.078125 L 97.984375 -112.078125 L 97.984375 -91.265625 Z M 39.234375 -91.265625 "/></g></g></g><g fill="#0a1f44" fill-opacity="1"><g transform="translate(101.646953, 155.86555)"><g><path d="M 11.53125 -86.140625 L 36.5 -86.140625 L 36.5 0 L 11.53125 0 Z M 24.015625 -98.140625 C 19.421875 -98.140625 15.679688 -99.472656 12.796875 -102.140625 C 9.921875 -104.816406 8.484375 -108.128906 8.484375 -112.078125 C 8.484375 -116.023438 9.921875 -119.332031 12.796875 -122 C 15.679688 -124.664062 19.421875 -126 24.015625 -126 C 28.609375 -126 32.34375 -124.71875 35.21875 -122.15625 C 38.101562 -119.601562 39.546875 -116.40625 39.546875 -112.5625 C 39.546875 -108.394531 38.101562 -104.945312 35.21875 -102.21875 C 32.34375 -99.5 28.609375 -98.140625 24.015625 -98.140625 Z M 24.015625 -98.140625 "/></g></g></g><g fill="#0a1f44" fill-opacity="1"><g transform="translate(149.834755, 155.86555)"><g><path d="M 63.890625 -87.421875 C 74.554688 -87.421875 83.171875 -84.21875 89.734375 -77.8125 C 96.304688 -71.40625 99.59375 -61.90625 99.59375 -49.3125 L 99.59375 0 L 74.609375 0 L 74.609375 -45.46875 C 74.609375 -52.300781 73.113281 -57.398438 70.125 -60.765625 C 67.132812 -64.128906 62.8125 -65.8125 57.15625 -65.8125 C 50.863281 -65.8125 45.847656 -63.859375 42.109375 -59.953125 C 38.367188 -56.054688 36.5 -50.269531 36.5 -42.59375 L 36.5 0 L 11.53125 0 L 11.53125 -86.140625 L 35.390625 -86.140625 L 35.390625 -76.046875 C 38.691406 -79.679688 42.796875 -82.484375 47.703125 -84.453125 C 52.617188 -86.429688 58.015625 -87.421875 63.890625 -87.421875 Z M 63.890625 -87.421875 "/></g></g></g><g fill="#0a1f44" fill-opacity="1"><g transform="translate(260.458559, 155.86555)"><g><path d="M 46.265625 -87.421875 C 59.609375 -87.421875 69.851562 -84.242188 77 -77.890625 C 84.15625 -71.535156 87.734375 -61.957031 87.734375 -49.15625 L 87.734375 0 L 64.359375 0 L 64.359375 -10.734375 C 59.660156 -2.722656 50.910156 1.28125 38.109375 1.28125 C 31.484375 1.28125 25.742188 0.160156 20.890625 -2.078125 C 16.035156 -4.316406 12.328125 -7.410156 9.765625 -11.359375 C 7.203125 -15.316406 5.921875 -19.800781 5.921875 -24.8125 C 5.921875 -32.820312 8.9375 -39.117188 14.96875 -43.703125 C 21 -48.296875 30.3125 -50.59375 42.90625 -50.59375 L 62.765625 -50.59375 C 62.765625 -56.039062 61.109375 -60.226562 57.796875 -63.15625 C 54.492188 -66.09375 49.53125 -67.5625 42.90625 -67.5625 C 38.320312 -67.5625 33.8125 -66.84375 29.375 -65.40625 C 24.945312 -63.96875 21.1875 -62.019531 18.09375 -59.5625 L 9.125 -77.015625 C 13.820312 -80.316406 19.453125 -82.875 26.015625 -84.6875 C 32.578125 -86.507812 39.328125 -87.421875 46.265625 -87.421875 Z M 44.34375 -15.53125 C 48.613281 -15.53125 52.40625 -16.515625 55.71875 -18.484375 C 59.03125 -20.460938 61.378906 -23.375 62.765625 -27.21875 L 62.765625 -36.03125 L 45.625 -36.03125 C 35.382812 -36.03125 30.265625 -32.664062 30.265625 -25.9375 C 30.265625 -22.738281 31.515625 -20.203125 34.015625 -18.328125 C 36.523438 -16.460938 39.96875 -15.53125 44.34375 -15.53125 Z M 44.34375 -15.53125 "/></g></g></g><g fill="#0a1f44" fill-opacity="1"><g transform="translate(359.235559, 155.86555)"><g><path d="M 63.890625 -87.421875 C 74.554688 -87.421875 83.171875 -84.21875 89.734375 -77.8125 C 96.304688 -71.40625 99.59375 -61.90625 99.59375 -49.3125 L 99.59375 0 L 74.609375 0 L 74.609375 -45.46875 C 74.609375 -52.300781 73.113281 -57.398438 70.125 -60.765625 C 67.132812 -64.128906 62.8125 -65.8125 57.15625 -65.8125 C 50.863281 -65.8125 45.847656 -63.859375 42.109375 -59.953125 C 38.367188 -56.054688 36.5 -50.269531 36.5 -42.59375 L 36.5 0 L 11.53125 0 L 11.53125 -86.140625 L 35.390625 -86.140625 L 35.390625 -76.046875 C 38.691406 -79.679688 42.796875 -82.484375 47.703125 -84.453125 C 52.617188 -86.429688 58.015625 -87.421875 63.890625 -87.421875 Z M 63.890625 -87.421875 "/></g></g></g><g fill="#0a1f44" fill-opacity="1"><g transform="translate(470.819983, 155.86555)"><g><path d="M 53.15625 1.28125 C 43.976562 1.28125 35.734375 -0.613281 28.421875 -4.40625 C 21.109375 -8.195312 15.394531 -13.453125 11.28125 -20.171875 C 7.175781 -26.898438 5.125 -34.53125 5.125 -43.0625 C 5.125 -51.601562 7.175781 -59.234375 11.28125 -65.953125 C 15.394531 -72.679688 21.109375 -77.941406 28.421875 -81.734375 C 35.734375 -85.523438 43.976562 -87.421875 53.15625 -87.421875 C 62.226562 -87.421875 70.148438 -85.523438 76.921875 -81.734375 C 83.703125 -77.941406 88.644531 -72.523438 91.75 -65.484375 L 72.375 -55.078125 C 67.882812 -62.972656 61.425781 -66.921875 53 -66.921875 C 46.488281 -66.921875 41.097656 -64.785156 36.828125 -60.515625 C 32.554688 -56.242188 30.421875 -50.425781 30.421875 -43.0625 C 30.421875 -35.695312 32.554688 -29.878906 36.828125 -25.609375 C 41.097656 -21.347656 46.488281 -19.21875 53 -19.21875 C 61.539062 -19.21875 68 -23.164062 72.375 -31.0625 L 91.75 -20.5 C 88.644531 -13.664062 83.703125 -8.328125 76.921875 -4.484375 C 70.148438 -0.640625 62.226562 1.28125 53.15625 1.28125 Z M 53.15625 1.28125 "/></g></g></g><g fill="#0a1f44" fill-opacity="1"><g transform="translate(564.313869, 155.86555)"><g><path d="M 95.90625 -42.75 C 95.90625 -42.425781 95.742188 -40.1875 95.421875 -36.03125 L 30.265625 -36.03125 C 31.429688 -30.6875 34.203125 -26.46875 38.578125 -23.375 C 42.960938 -20.28125 48.410156 -18.734375 54.921875 -18.734375 C 59.398438 -18.734375 63.375 -19.398438 66.84375 -20.734375 C 70.3125 -22.066406 73.539062 -24.175781 76.53125 -27.0625 L 89.828125 -12.65625 C 81.710938 -3.363281 69.863281 1.28125 54.28125 1.28125 C 44.5625 1.28125 35.96875 -0.613281 28.5 -4.40625 C 21.03125 -8.195312 15.265625 -13.453125 11.203125 -20.171875 C 7.148438 -26.898438 5.125 -34.53125 5.125 -43.0625 C 5.125 -51.5 7.125 -59.101562 11.125 -65.875 C 15.125 -72.65625 20.617188 -77.941406 27.609375 -81.734375 C 34.609375 -85.523438 42.429688 -87.421875 51.078125 -87.421875 C 59.503906 -87.421875 67.132812 -85.601562 73.96875 -81.96875 C 80.800781 -78.34375 86.164062 -73.140625 90.0625 -66.359375 C 93.957031 -59.585938 95.90625 -51.71875 95.90625 -42.75 Z M 51.234375 -68.53125 C 45.578125 -68.53125 40.828125 -66.925781 36.984375 -63.71875 C 33.140625 -60.519531 30.789062 -56.144531 29.9375 -50.59375 L 72.375 -50.59375 C 71.519531 -56.039062 69.171875 -60.390625 65.328125 -63.640625 C 61.484375 -66.898438 56.785156 -68.53125 51.234375 -68.53125 Z M 51.234375 -68.53125 "/></g></g></g><g fill="#0a1f44" fill-opacity="1"><g transform="translate(665.332119, 155.86555)"><g><path d="M 39.234375 -91.265625 L 39.234375 -61.640625 L 91.109375 -61.640625 L 91.109375 -40.828125 L 39.234375 -40.828125 L 39.234375 0 L 13.296875 0 L 13.296875 -112.078125 L 97.984375 -112.078125 L 97.984375 -91.265625 Z M 39.234375 -91.265625 "/></g></g></g><g fill="#0a1f44" fill-opacity="1"><g transform="translate(767.631139, 155.86555)"><g><path d="M 11.53125 -118.796875 L 36.5 -118.796875 L 36.5 0 L 11.53125 0 Z M 11.53125 -118.796875 "/></g></g></g><g fill="#0a1f44" fill-opacity="1"><g transform="translate(815.81897, 155.86555)"><g><path d="M 52.515625 1.28125 C 43.441406 1.28125 35.300781 -0.613281 28.09375 -4.40625 C 20.894531 -8.195312 15.265625 -13.453125 11.203125 -20.171875 C 7.148438 -26.898438 5.125 -34.53125 5.125 -43.0625 C 5.125 -51.601562 7.148438 -59.234375 11.203125 -65.953125 C 15.265625 -72.679688 20.894531 -77.941406 28.09375 -81.734375 C 35.300781 -85.523438 43.441406 -87.421875 52.515625 -87.421875 C 61.585938 -87.421875 69.695312 -85.523438 76.84375 -81.734375 C 84 -77.941406 89.601562 -72.679688 93.65625 -65.953125 C 97.71875 -59.234375 99.75 -51.601562 99.75 -43.0625 C 99.75 -34.53125 97.71875 -26.898438 93.65625 -20.171875 C 89.601562 -13.453125 84 -8.195312 76.84375 -4.40625 C 69.695312 -0.613281 61.585938 1.28125 52.515625 1.28125 Z M 52.515625 -19.21875 C 58.921875 -19.21875 64.175781 -21.378906 68.28125 -25.703125 C 72.394531 -30.023438 74.453125 -35.8125 74.453125 -43.0625 C 74.453125 -50.320312 72.394531 -56.113281 68.28125 -60.4375 C 64.175781 -64.757812 58.921875 -66.921875 52.515625 -66.921875 C 46.109375 -66.921875 40.820312 -64.757812 36.65625 -60.4375 C 32.5 -56.113281 30.421875 -50.320312 30.421875 -43.0625 C 30.421875 -35.8125 32.5 -30.023438 36.65625 -25.703125 C 40.820312 -21.378906 46.109375 -19.21875 52.515625 -19.21875 Z M 52.515625 -19.21875 "/></g></g></g><g fill="#0a1f44" fill-opacity="1"><g transform="translate(919.558738, 155.86555)"><g><path d="M 20.96875 1.28125 C 16.59375 1.28125 12.910156 -0.210938 9.921875 -3.203125 C 6.929688 -6.191406 5.4375 -9.925781 5.4375 -14.40625 C 5.4375 -19 6.929688 -22.707031 9.921875 -25.53125 C 12.910156 -28.363281 16.59375 -29.78125 20.96875 -29.78125 C 25.34375 -29.78125 29.023438 -28.363281 32.015625 -25.53125 C 35.003906 -22.707031 36.5 -19 36.5 -14.40625 C 36.5 -9.925781 35.003906 -6.191406 32.015625 -3.203125 C 29.023438 -0.210938 25.34375 1.28125 20.96875 1.28125 Z M 20.96875 1.28125 "/></g></g></g><g fill="#2bb673" fill-opacity="1"><g transform="translate(966.63182, 155.86555)"><g><path d="M 87.09375 -24.015625 L 35.0625 -24.015625 L 25.140625 0 L -1.4375 0 L 48.515625 -112.078125 L 74.125 -112.078125 L 124.25 0 L 97.03125 0 Z M 78.9375 -43.703125 L 61.15625 -86.625 L 43.390625 -43.703125 Z M 78.9375 -43.703125 "/></g></g></g><g fill="#007bff" fill-opacity="1"><g transform="translate(1089.265264, 155.86555)"><g><path d="M 13.296875 -112.078125 L 39.234375 -112.078125 L 39.234375 0 L 13.296875 0 Z M 13.296875 -112.078125 "/></g></g></g></g></g></svg>